<?xml version="1.0" encoding="UTF-8" standalone="no"?>
<!DOCTYPE svg PUBLIC "-//W3C//DTD SVG 1.1//EN" "http://www.w3.org/Graphics/SVG/1.1/DTD/svg11.dtd">
<svg width="100%" height="100%" viewBox="0 0 120 48" version="1.1" xmlns="http://www.w3.org/2000/svg" xmlns:xlink="http://www.w3.org/1999/xlink" xml:space="preserve" xmlns:serif="http://www.serif.com/" style="fill-rule:evenodd;clip-rule:evenodd;stroke-linejoin:round;stroke-miterlimit:2;">
    <g>
        <path d="M120,23.568L21.81,23.568C21.79,23.569 21.769,23.573 21.75,23.58C21.657,23.607 21.593,23.692 21.592,23.789L21.592,24.127C21.592,24.74 21.367,25.283 20.959,25.656C20.579,26.005 20.065,26.188 19.475,26.188L10.942,26.188C10.352,26.188 9.796,25.965 9.377,25.558C8.947,25.142 8.705,24.569 8.708,23.971L8.708,23.568L0,23.568L0,27.265C0,29.562 1.866,31.441 4.146,31.441L115.853,31.441C118.134,31.441 120,29.561 120,27.265L120,23.568Z" style="fill:rgb(237,11,20);"/>
        <path d="M4.147,0C1.866,0 0,1.879 0,4.176L0,23.568L8.707,23.568L8.707,21.875C8.707,21.536 8.437,21.336 8.317,21.251C8.144,21.128 4.958,19.447 4.958,15.612C4.958,11.087 8.551,8.446 11.965,8.446C12.172,8.446 12.42,8.457 12.649,8.48C12.75,8.259 12.901,8.057 13.092,7.889C13.415,7.602 13.83,7.441 14.262,7.434L14.624,7.434C14.742,7.433 14.84,7.337 14.844,7.219L14.844,7.035C14.844,5.828 15.81,4.844 16.998,4.844L19.425,4.844C20.004,4.844 20.55,5.071 20.963,5.483C21.383,5.899 21.613,6.45 21.613,7.035L21.613,10.411C21.612,10.589 21.686,10.759 21.816,10.881L24.906,13.995C25.372,14.463 25.609,15.036 25.609,15.699L25.609,21.263C25.609,21.872 25.345,22.472 24.889,22.909C24.458,23.325 23.884,23.561 23.285,23.568L120,23.568L120,4.176C120,1.879 118.134,0 115.854,0L4.147,0ZM34.813,41.605C34.424,41.377 33.927,41.295 33.377,41.295L32.29,41.295L32.29,44.336L33.471,44.336C34.531,44.336 35.458,44.133 35.458,42.876C35.458,42.499 35.39,41.958 34.813,41.606M33.659,37.672L32.29,37.672L32.29,40.147L33.108,40.147C33.632,40.147 34.021,40.092 34.357,39.971C34.786,39.821 35.216,39.498 35.216,38.861C35.216,38.051 34.612,37.671 33.659,37.671M33.484,45.539L31.283,45.539C31.028,45.539 30.92,45.404 30.92,45.175L30.92,36.888C30.92,36.645 31.028,36.523 31.283,36.523L33.632,36.523C35.216,36.523 36.571,37.049 36.571,38.673C36.571,39.713 36.008,40.321 35.095,40.647C36.182,40.944 36.907,41.647 36.907,42.917C36.907,44.904 35.471,45.539 33.484,45.539M42.677,45.539L42.194,45.539C41.898,45.539 41.818,45.404 41.818,45.175L41.818,44.513C41.321,45.121 40.623,45.648 39.724,45.648C38.556,45.648 38.046,44.944 38.046,43.795L38.046,39.335C38.046,39.092 38.167,38.969 38.408,38.969L38.999,38.969C39.241,38.969 39.348,39.105 39.348,39.349L39.348,43.485C39.348,44.093 39.522,44.485 40.046,44.485C40.596,44.485 41.053,44.133 41.429,43.688C41.67,43.403 41.737,43.228 41.737,42.741L41.737,39.361C41.737,39.106 41.818,38.969 42.126,38.969L42.65,38.969C42.932,38.969 43.026,39.105 43.026,39.349L43.026,45.162C43.026,45.419 42.918,45.539 42.677,45.539M45.777,45.539L45.268,45.539C44.972,45.539 44.878,45.404 44.878,45.161L44.878,39.348C44.878,39.092 44.999,38.969 45.241,38.969L45.791,38.969C46.086,38.969 46.18,39.105 46.18,39.334L46.18,45.147C46.18,45.405 46.1,45.539 45.777,45.539M45.522,37.807C45.101,37.805 44.756,37.458 44.757,37.037C44.757,36.617 45.106,36.267 45.522,36.267C45.952,36.267 46.288,36.617 46.288,37.037C46.288,37.04 46.288,37.044 46.288,37.047C46.288,37.464 45.945,37.807 45.528,37.807C45.526,37.807 45.524,37.807 45.522,37.807M48.945,45.539L48.435,45.539C48.14,45.539 48.046,45.404 48.046,45.161L48.046,36.712C48.046,36.455 48.167,36.334 48.408,36.334L48.959,36.334C49.254,36.334 49.348,36.468 49.348,36.698L49.348,45.148C49.348,45.404 49.267,45.539 48.945,45.539M53.429,39.998C52.274,39.998 52.1,41.431 52.1,42.295C52.1,43.364 52.395,44.513 53.362,44.513C54.355,44.513 54.838,43.499 54.838,42.336C54.838,40.862 54.288,39.998 53.429,39.998M55.778,45.539L55.321,45.539C55.013,45.539 54.919,45.404 54.919,45.161L54.919,44.701C54.569,45.228 53.993,45.648 53.174,45.648C51.348,45.648 50.757,43.876 50.757,42.281C50.757,40.429 51.549,38.861 53.187,38.861C54.033,38.861 54.542,39.308 54.838,39.714L54.838,36.712C54.838,36.455 54.932,36.334 55.241,36.334L55.751,36.334C56.033,36.334 56.14,36.468 56.14,36.725L56.14,45.161C56.14,45.404 56.033,45.539 55.778,45.539M58.878,45.539L58.368,45.539C58.072,45.539 57.979,45.404 57.979,45.161L57.979,39.348C57.979,39.092 58.099,38.969 58.341,38.969L58.892,38.969C59.187,38.969 59.281,39.105 59.281,39.334L59.281,45.147C59.281,45.405 59.2,45.539 58.878,45.539M58.623,37.807C58.202,37.805 57.857,37.458 57.858,37.037C57.858,36.617 58.207,36.267 58.623,36.267C59.053,36.267 59.388,36.617 59.388,37.037C59.388,37.041 59.388,37.044 59.388,37.048C59.388,37.464 59.045,37.807 58.629,37.807C58.627,37.807 58.625,37.807 58.623,37.807M65.751,45.539L65.146,45.539C64.919,45.539 64.812,45.404 64.812,45.161L64.812,41.025C64.812,40.417 64.623,40.025 64.113,40.025C63.563,40.025 63.106,40.375 62.73,40.822C62.476,41.105 62.422,41.282 62.422,41.769L62.422,45.148C62.422,45.404 62.342,45.539 62.019,45.539L61.509,45.539C61.214,45.539 61.119,45.404 61.119,45.161L61.119,39.348C61.119,39.092 61.24,38.969 61.482,38.969L61.965,38.969C62.247,38.969 62.342,39.105 62.342,39.334L62.342,39.997C62.838,39.389 63.536,38.861 64.436,38.861C65.603,38.861 66.1,39.565 66.1,40.714L66.1,45.174C66.1,45.419 65.98,45.539 65.751,45.539M70.086,39.998C69.214,39.998 68.811,40.929 68.811,42.106C68.811,43.58 69.294,44.296 70.1,44.296C70.958,44.296 71.455,43.296 71.455,42.173C71.455,40.848 70.878,39.998 70.086,39.998M70.22,48C69.24,48 68.435,47.729 67.991,47.513C67.897,47.471 67.804,47.403 67.804,47.283C67.806,47.231 67.82,47.179 67.844,47.133L68.112,46.553C68.193,46.39 68.341,46.349 68.542,46.445C68.945,46.675 69.509,46.891 70.18,46.891C71.16,46.891 71.455,46.322 71.455,45.524L71.455,44.564C71.173,44.958 70.582,45.431 69.897,45.431C68.22,45.431 67.469,43.929 67.469,42.104C67.469,40.591 68.153,38.861 69.925,38.861C70.59,38.87 71.203,39.23 71.535,39.806L71.535,39.387C71.535,39.105 71.616,38.968 71.925,38.968L72.408,38.968C72.649,38.968 72.743,39.104 72.743,39.375L72.743,45.485C72.743,47.013 72.207,48 70.22,48M80.06,45.729C78.985,45.729 78.1,45.336 77.469,44.958C77.374,44.903 77.294,44.835 77.294,44.754C77.294,44.701 77.32,44.619 77.361,44.551L77.71,43.876C77.804,43.713 77.951,43.713 78.126,43.808C78.516,44.038 79.294,44.498 80.019,44.498C80.999,44.498 81.536,43.97 81.536,43.228C81.536,42.415 81.039,42.05 80.019,41.632C78.287,40.915 77.415,40.307 77.415,38.819C77.415,37.198 78.663,36.333 80.14,36.333C81.254,36.333 81.952,36.643 82.542,36.981C82.663,37.035 82.703,37.104 82.703,37.171C82.698,37.233 82.679,37.292 82.649,37.346L82.327,38.009C82.247,38.171 82.1,38.212 81.938,38.131C81.361,37.806 80.824,37.562 80.14,37.562C79.32,37.562 78.757,37.968 78.757,38.672C78.757,39.455 79.213,39.766 80.569,40.333C81.911,40.902 82.878,41.429 82.878,43.051C82.878,44.809 81.696,45.729 80.06,45.729M86.528,40.009C85.428,40.009 85.159,41.213 85.159,42.268C85.159,43.294 85.441,44.498 86.528,44.498C87.656,44.498 87.911,43.28 87.911,42.268C87.911,41.213 87.656,40.01 86.528,40.01M86.528,45.646C84.596,45.646 83.817,43.93 83.817,42.241C83.817,40.564 84.609,38.861 86.528,38.861C88.502,38.861 89.268,40.604 89.268,42.241C89.268,43.89 88.516,45.647 86.528,45.647M95.079,45.092C94.609,45.39 93.897,45.646 92.985,45.646C91.575,45.646 90.273,44.701 90.273,42.172C90.273,40.333 91.227,38.86 93.025,38.86C93.724,38.86 94.395,39.05 94.878,39.334C94.985,39.402 95.039,39.468 95.039,39.564C95.034,39.648 95.011,39.731 94.972,39.806L94.717,40.293C94.636,40.457 94.488,40.457 94.341,40.389C93.979,40.213 93.563,40.009 93.119,40.009C91.938,40.009 91.616,41.227 91.616,42.268C91.616,43.321 91.965,44.498 93.093,44.498C93.643,44.498 94.153,44.254 94.488,44.078C94.703,43.97 94.838,43.983 94.918,44.119L95.2,44.647C95.24,44.713 95.267,44.768 95.267,44.862C95.267,44.931 95.213,45.012 95.079,45.092M97.455,45.538L96.945,45.538C96.649,45.538 96.556,45.403 96.556,45.16L96.556,39.347C96.556,39.091 96.677,38.968 96.918,38.968L97.469,38.968C97.764,38.968 97.857,39.104 97.857,39.333L97.857,45.146C97.857,45.404 97.777,45.538 97.455,45.538M97.2,37.806C96.779,37.804 96.434,37.457 96.435,37.036C96.435,36.616 96.784,36.266 97.2,36.266C97.63,36.266 97.965,36.616 97.965,37.036C97.965,37.04 97.965,37.043 97.965,37.047C97.965,37.463 97.622,37.806 97.206,37.806C97.204,37.806 97.202,37.806 97.2,37.806M102.005,39.956C101.173,39.956 100.77,40.646 100.703,41.537L103.173,41.537C103.146,40.713 102.864,39.956 102.005,39.956M104.192,42.524L100.676,42.524L100.676,42.619C100.703,43.444 100.971,44.525 102.126,44.525C102.73,44.525 103.253,44.281 103.495,44.132C103.71,44.024 103.871,43.983 103.978,44.159L104.26,44.674C104.3,44.754 104.327,44.836 104.327,44.89C104.327,44.97 104.273,45.025 104.152,45.105C103.669,45.403 102.891,45.646 102.112,45.646C100.059,45.646 99.334,43.983 99.334,42.308C99.334,40.618 100.072,38.861 102.059,38.861C103.763,38.861 104.515,40.253 104.515,42.186C104.515,42.39 104.421,42.524 104.192,42.524M109.065,45.471C108.783,45.579 108.273,45.646 107.83,45.646C106.864,45.646 106.26,45.187 106.26,43.849L106.26,40.091L105.562,40.091C105.36,40.091 105.267,39.97 105.267,39.794L105.267,39.266C105.267,39.077 105.374,38.968 105.562,38.968L106.26,38.968L106.26,37.265C106.26,37.009 106.381,36.887 106.622,36.887L107.173,36.887C107.481,36.887 107.563,37.022 107.563,37.251L107.563,38.968L108.609,38.968C108.783,38.968 108.904,39.078 108.904,39.266L108.904,39.793C108.904,39.97 108.811,40.091 108.609,40.091L107.563,40.091L107.563,43.714C107.563,44.268 107.656,44.551 108.126,44.551C108.341,44.551 108.582,44.471 108.73,44.416C108.904,44.363 108.985,44.402 109.039,44.579L109.187,45.16C109.21,45.216 109.223,45.275 109.227,45.335C109.227,45.391 109.173,45.431 109.065,45.471M115.076,39.361L112.941,45.768C112.472,47.175 112.016,48 110.66,48C110.311,48 110.002,47.918 109.841,47.85C109.747,47.824 109.707,47.782 109.707,47.702C109.693,47.647 109.72,47.566 109.733,47.525L109.921,46.917C109.948,46.809 110.029,46.769 110.137,46.796C110.298,46.836 110.525,46.904 110.727,46.904C111.264,46.904 111.465,46.335 111.72,45.592L111.747,45.538L109.667,39.333C109.641,39.259 109.628,39.182 109.626,39.104C109.626,39.023 109.72,38.968 109.841,38.968L110.687,38.968C110.874,38.968 110.955,39.049 111.009,39.239L112.418,43.781L113.841,39.24C113.908,39.05 113.989,38.968 114.163,38.968L114.915,38.968C115.049,38.968 115.13,39.022 115.13,39.104C115.13,39.159 115.103,39.28 115.076,39.361" style="fill:rgb(0,41,121);"/>
        <path d="M37.79,7.83L42.158,7.83L42.158,8.698L41.986,8.698C41.283,8.698 40.943,8.988 40.943,9.613L40.943,21.895L40.011,21.895C40.011,21.895 33.141,12.583 32.581,11.822L32.581,19.907C32.581,20.205 33.118,20.661 33.588,20.661L34.04,20.661L34.04,21.517L29.481,21.517L29.481,20.697L29.647,20.697C29.929,20.697 30.832,20.622 30.832,19.907L30.832,9.767C30.763,9.683 29.945,8.709 29.856,8.61L29.546,8.61L29.546,7.818L33.608,7.818C33.608,7.818 38.684,14.884 39.232,15.643L39.232,9.613C39.232,9.086 38.73,8.698 38.39,8.698L37.79,8.698L37.79,7.83ZM47.348,19.36C47.085,19.851 46.518,20.07 46.282,20.07C46,20.07 45.506,19.838 45.506,18.918C45.506,18.025 46.304,17.143 47.348,16.799L47.348,19.36ZM50.374,20.205C50.241,20.158 50.114,20.041 50.114,19.907L50.114,14.45C50.114,12.913 48.595,11.885 46.354,11.885C44.394,11.885 43.384,12.605 42.957,13.036L42.917,13.084L42.917,15.914L43.665,15.914L43.698,15.771C44.221,13.328 45.598,13.099 46.162,13.105C46.648,13.121 47.369,13.565 47.369,14.133L47.369,15.474C44.147,16.385 42.575,17.754 42.575,19.669C42.575,20.973 43.509,21.853 44.905,21.853C45.807,21.853 46.648,21.504 47.475,20.834C47.645,21.394 48.29,21.82 49.081,21.82C49.811,21.82 50.457,21.463 50.909,20.81L50.94,20.777L50.94,19.817L50.637,20.179C50.579,20.254 50.463,20.242 50.374,20.205ZM55.11,12.13L56.794,12.13L56.794,13.276L55.11,13.276L55.11,19.422C55.11,19.635 55.24,19.838 55.453,19.976C55.699,20.121 56.002,20.135 56.261,20.013L56.511,19.891L56.511,20.687L56.481,20.727C55.865,21.59 55.267,21.757 54.379,21.757C53.367,21.757 52.361,21.021 52.361,19.622L52.361,13.294L51.423,13.294L51.423,12.441L51.49,12.391C52.728,11.467 53.784,9.814 54.347,8.935L54.427,8.815L55.11,8.815L55.11,12.13ZM59.624,10.85C60.497,10.85 61.212,10.135 61.212,9.246C61.212,8.362 60.497,7.644 59.624,7.644C58.74,7.644 58.032,8.362 58.032,9.246C58.032,10.136 58.74,10.849 59.624,10.849L59.624,10.85ZM61.897,20.696L61.897,21.542L57.32,21.542L57.32,20.714L57.482,20.714C57.843,20.714 58.242,20.445 58.242,20.056L58.242,12.13L61.054,12.13L61.054,20.07C61.054,20.487 61.484,20.696 61.735,20.696L61.897,20.696ZM66.617,20.572C66.099,20.572 65.325,20.572 65.325,17.003C65.325,13.37 65.982,13.071 66.591,13.071C67.172,13.071 67.831,13.519 67.831,17.082C67.831,20.572 66.981,20.572 66.616,20.572L66.617,20.572ZM66.591,11.832C64.578,11.832 62.393,13.727 62.393,16.79C62.393,20.755 65.178,21.793 66.639,21.793C68.304,21.793 70.747,20.293 70.747,17.059C70.747,14.08 68.965,11.832 66.591,11.832ZM80.713,20.696L80.881,20.696L80.881,21.517L76.388,21.517L76.388,20.714L76.561,20.714C76.828,20.714 77.216,20.396 77.216,20.175L77.216,14.69C77.216,13.896 76.94,13.49 76.376,13.49C75.723,13.49 75.076,14.326 75.076,14.61L75.076,20.003C75.076,20.416 75.376,20.741 75.781,20.741L75.947,20.741L75.947,21.518L71.314,21.518L71.314,20.756L71.464,20.747C71.847,20.713 72.265,20.463 72.265,20.003L72.265,13.443C72.265,13.004 71.778,12.914 71.768,12.914L71.364,12.914L71.364,12.125L75.046,12.125L75.046,12.963C75.634,12.243 76.449,11.857 77.56,11.857C79.188,11.857 80.077,13.331 80.077,14.74L80.077,20.148C80.077,20.471 80.182,20.698 80.713,20.698L80.713,20.696ZM93.123,12.863C92.837,12.863 92.626,13.129 92.4,13.759L89.616,21.773L88.703,21.773C88.703,21.773 87.33,17.264 87.085,16.449C86.799,17.259 85.185,21.773 85.185,21.773L84.223,21.773L84.185,21.664C83.011,18.389 81.221,13.431 81.113,13.204C81.018,13.038 80.769,12.914 80.671,12.878L80.576,12.836L80.576,12.096L84.752,12.096L84.752,12.889L84.575,12.889C84.382,12.889 84.212,12.962 84.13,13.075C84.095,13.156 84.063,13.225 84.063,13.306C84.063,13.431 84.109,13.564 84.143,13.667C84.371,14.235 85.117,16.393 85.443,17.324C85.68,16.671 86.48,14.546 86.513,14.441C86.48,14.337 86.137,13.204 86.137,13.204C86.047,12.956 85.74,12.914 85.552,12.914L85.385,12.914L85.385,12.13L89.786,12.13L89.786,12.89L89.607,12.89C89.33,12.89 89.132,12.962 89.02,13.084C88.953,13.193 88.933,13.326 88.965,13.45C89.036,13.767 89.64,16.117 89.918,17.195C90.268,16.157 91.01,13.937 91.131,13.488C91.178,13.367 91.162,13.23 91.089,13.122C90.973,12.962 90.711,12.889 90.503,12.889L90.34,12.889L90.34,12.147L93.296,12.147L93.296,12.863L93.123,12.863ZM95.355,10.849C96.232,10.846 96.952,10.123 96.95,9.246C96.95,8.362 96.232,7.644 95.355,7.644C94.48,7.644 93.767,8.362 93.767,9.246C93.767,10.136 94.48,10.849 95.355,10.849ZM97.637,20.696L97.637,21.542L93.057,21.542L93.057,20.714L93.217,20.714C93.581,20.714 93.977,20.445 93.977,20.056L93.977,12.13L96.786,12.13L96.786,20.07C96.786,20.487 97.222,20.696 97.466,20.696L97.637,20.696ZM103.562,19.171C103.562,19.461 102.732,20.311 102.29,20.311C101.185,20.311 100.955,18.524 100.955,17.003C100.955,13.801 101.645,13.374 102.332,13.374C103.008,13.374 103.498,14.384 103.562,14.526L103.562,19.171ZM106.319,19.954L106.319,7.83L102.226,7.83L102.226,8.648L102.804,8.648C103.036,8.648 103.587,8.879 103.587,9.3L103.587,12.655C103.225,12.295 102.584,11.812 101.624,11.812C100.228,11.812 98.037,13.204 98.037,16.984C98.037,20.794 100.224,21.794 101.378,21.794C102.463,21.794 103.126,21.394 103.539,20.948L103.539,21.518L107.151,21.518L107.151,20.74L106.981,20.74C106.596,20.74 106.319,20.327 106.319,19.954ZM110.494,15.614C110.522,13.441 110.928,13.002 111.607,13.002C112.478,13.002 112.569,14.073 112.577,15.614L110.494,15.614ZM115.041,16.727C115.041,13.328 113.271,11.812 111.515,11.812C110.185,11.812 107.687,12.863 107.687,16.887C107.687,21.689 111.163,21.82 111.568,21.82C113.058,21.82 114.161,20.93 114.815,20.185L114.897,20.102L114.543,19.363L114.373,19.487C114.373,19.487 113.486,20.138 112.576,20.138C110.879,20.138 110.522,18.949 110.494,16.892L115.041,16.892L115.041,16.727ZM8.707,21.876L8.707,23.971C8.707,24.576 8.945,25.139 9.376,25.558C9.795,25.965 10.352,26.188 10.941,26.188L19.475,26.188C20.064,26.188 20.578,26.005 20.958,25.656C21.366,25.283 21.591,24.74 21.591,24.126L21.591,23.796C21.589,23.697 21.654,23.608 21.749,23.58C21.769,23.574 21.788,23.568 21.81,23.568L23.284,23.568C23.866,23.568 24.451,23.328 24.889,22.908C25.342,22.48 25.601,21.886 25.608,21.263L25.608,15.699C25.608,15.036 25.372,14.463 24.905,13.995L21.815,10.881C21.686,10.759 21.613,10.589 21.613,10.411L21.613,7.035C21.613,6.45 21.382,5.899 20.964,5.483C20.557,5.074 20.003,4.843 19.426,4.843L16.998,4.843C15.811,4.843 14.845,5.828 14.845,7.035L14.845,7.219C14.841,7.337 14.743,7.433 14.625,7.433L14.262,7.433C13.569,7.443 12.94,7.851 12.649,8.48C12.422,8.458 12.193,8.446 11.965,8.446C8.552,8.446 4.958,11.086 4.958,15.612C4.958,19.447 8.145,21.129 8.317,21.251C8.437,21.336 8.707,21.536 8.707,21.876Z" style="fill:white;"/>
        <path d="M21.048,19.977L21.048,18.907C21.048,18.906 21.048,18.906 21.048,18.905C21.048,18.624 20.818,18.393 20.537,18.392C20.255,18.393 20.024,18.625 20.025,18.907L20.025,19.977C20.042,20.245 20.267,20.457 20.536,20.457C20.805,20.457 21.03,20.245 21.047,19.977M24.164,14.757L20.919,11.487C20.725,11.281 20.583,11.012 20.583,10.715L20.583,7.037C20.578,6.402 20.055,5.881 19.42,5.877L17.116,5.877C16.486,5.877 15.982,6.389 15.982,7.025L15.982,8.134C15.982,8.134 15.982,8.135 15.982,8.135C15.982,8.336 15.816,8.502 15.615,8.502C15.611,8.502 15.608,8.502 15.604,8.502L14.378,8.502C14.033,8.502 13.675,8.767 13.64,9.148C13.612,9.448 13.513,9.685 13.002,9.593L12.982,9.589C12.609,9.516 12.231,9.479 11.851,9.479C8.61,9.479 5.981,12.126 5.981,15.391C5.977,17.28 6.878,19.06 8.403,20.175L8.406,20.177C8.488,20.236 8.586,20.268 8.687,20.268C8.849,20.268 9,20.186 9.088,20.051L12.414,15.061C12.414,15.061 12.76,14.531 13.388,14.531L17.22,14.531C17.421,14.531 17.586,14.366 17.586,14.165C17.586,14.133 17.582,14.102 17.574,14.071C17.208,12.46 16.184,11.073 14.751,10.25C14.626,10.186 14.548,10.056 14.548,9.916C14.548,9.71 14.717,9.54 14.924,9.54C14.925,9.54 14.926,9.54 14.927,9.54L16.174,9.54C16.634,9.538 17.011,9.159 17.011,8.699L17.011,7.275C17.011,7.061 17.181,6.907 17.378,6.907L19.203,6.907C19.398,6.911 19.556,7.072 19.556,7.267C19.556,7.27 19.556,7.272 19.556,7.275L19.556,15.185C19.556,15.375 19.703,15.558 19.922,15.558L23.191,15.558C23.431,15.558 23.557,15.764 23.557,15.927L23.557,21.169C23.557,21.172 23.557,21.176 23.557,21.179C23.557,21.376 23.395,21.538 23.198,21.538C23.194,21.538 23.191,21.538 23.187,21.538L20.332,21.538C19.89,21.54 19.528,21.903 19.527,22.345L19.526,23.755C19.526,23.757 19.526,23.758 19.526,23.76C19.526,23.959 19.362,24.123 19.163,24.123C19.162,24.123 19.16,24.123 19.159,24.123L16.002,24.123L16.002,22.562C16.002,22.561 16.002,22.561 16.002,22.56C16.002,22.279 15.772,22.048 15.491,22.047C15.209,22.048 14.978,22.28 14.979,22.562L14.979,24.122L11.124,24.122C11.122,24.122 11.12,24.122 11.118,24.122C10.92,24.122 10.758,23.96 10.758,23.762C10.758,23.76 10.758,23.758 10.758,23.756L10.758,21.386C10.758,21.17 10.934,21.018 11.124,21.018L15.586,21.018C15.806,21.018 15.989,20.753 15.989,20.753L19.062,16.137C19.235,15.866 18.992,15.563 18.774,15.563L13.534,15.563C13.328,15.563 13.24,15.703 13.137,15.867L9.992,20.584C9.992,20.584 9.735,20.954 9.735,21.387L9.735,23.973C9.735,24.642 10.28,25.159 10.945,25.159L19.714,25.159C20.106,25.159 20.553,24.851 20.553,24.318L20.553,22.934C20.553,22.777 20.671,22.566 20.919,22.566L23.276,22.566C23.941,22.566 24.576,21.99 24.576,21.291L24.576,15.731C24.576,15.304 24.404,14.998 24.164,14.757" style="fill:rgb(0,41,121);"/>
    </g>
</svg>
